<svg viewBox="0 0 297 22" fill="none" xmlns="http://www.w3.org/2000/svg">
<path d="M0 2.89477H10.04C11.91 2.89477 13.41 3.35477 14.55 4.26477C15.69 5.18477 16.26 6.47476 16.26 8.14476C16.26 8.85476 16.1 9.53476 15.79 10.1748C15.48 10.8148 15.03 11.3448 14.44 11.7448C15.29 12.1548 15.9 12.6748 16.27 13.2948C16.63 13.9148 16.82 14.7248 16.82 15.7248C16.82 16.8948 16.54 17.9248 15.97 18.8048C15.4 19.6848 14.64 20.3648 13.67 20.8348C12.71 21.3048 11.64 21.5448 10.47 21.5448H0V2.88477V2.89477ZM8.22 9.96476C8.77 9.96476 9.18 9.85477 9.43 9.63477C9.69 9.41477 9.82 9.04477 9.82 8.52477C9.82 8.04477 9.69 7.69477 9.43 7.48477C9.17 7.27477 8.77 7.16477 8.22 7.16477H6.14V9.96476H8.22ZM8.57 17.2748C9.21 17.2748 9.67 17.1548 9.96 16.9048C10.24 16.6548 10.39 16.2548 10.39 15.7048C10.39 15.1548 10.25 14.7448 9.96 14.4948C9.67 14.2348 9.21 14.1048 8.57 14.1048H6.14V17.2848H8.57V17.2748Z" fill="black"/>
<path d="M21.97 20.8045C20.62 20.0445 19.62 18.9945 18.98 17.6845C18.34 16.3745 18.02 14.8545 18.02 13.1445V2.89453H24.35V12.9545C24.35 14.0045 24.56 14.7945 24.99 15.3345C25.42 15.8645 26.09 16.1345 27.02 16.1345C27.95 16.1345 28.62 15.8645 29.04 15.3345C29.46 14.8045 29.67 14.0045 29.67 12.9545V2.89453H36.02V13.1445C36.02 14.8545 35.7 16.3645 35.06 17.6845C34.42 19.0045 33.42 20.0445 32.07 20.8045C30.72 21.5745 29.04 21.9545 27.03 21.9545C25.02 21.9545 23.34 21.5745 21.99 20.8045H21.97Z" fill="black"/>
<path d="M37.7402 2.89477H47.7802C49.6502 2.89477 51.1502 3.35477 52.2902 4.26477C53.4302 5.18477 54.0002 6.47476 54.0002 8.14476C54.0002 8.85476 53.8402 9.53476 53.5302 10.1748C53.2202 10.8148 52.7702 11.3448 52.1802 11.7448C53.0302 12.1548 53.6402 12.6748 54.0102 13.2948C54.3702 13.9148 54.5602 14.7248 54.5602 15.7248C54.5602 16.8948 54.2802 17.9248 53.7102 18.8048C53.1402 19.6848 52.3802 20.3648 51.4102 20.8348C50.4502 21.3048 49.3802 21.5448 48.2102 21.5448H37.7502V2.88477L37.7402 2.89477ZM45.9602 9.96476C46.5102 9.96476 46.9202 9.85477 47.1702 9.63477C47.4302 9.41477 47.5602 9.04477 47.5602 8.52477C47.5602 8.04477 47.4302 7.69477 47.1702 7.48477C46.9102 7.27477 46.5102 7.16477 45.9602 7.16477H43.8802V9.96476H45.9602ZM46.3102 17.2748C46.9502 17.2748 47.4102 17.1548 47.7002 16.9048C47.9802 16.6548 48.1302 16.2548 48.1302 15.7048C48.1302 15.1548 47.9902 14.7448 47.7002 14.4948C47.4102 14.2348 46.9502 14.1048 46.3102 14.1048H43.8802V17.2848H46.3102V17.2748Z" fill="black"/>
<path d="M55.8901 2.89477H65.9301C67.8001 2.89477 69.3001 3.35477 70.4401 4.26477C71.5801 5.18477 72.1501 6.47476 72.1501 8.14476C72.1501 8.85476 71.9901 9.53476 71.6801 10.1748C71.3701 10.8148 70.9201 11.3448 70.3301 11.7448C71.1801 12.1548 71.7901 12.6748 72.1601 13.2948C72.5201 13.9148 72.7101 14.7248 72.7101 15.7248C72.7101 16.8948 72.4301 17.9248 71.8601 18.8048C71.2901 19.6848 70.5301 20.3648 69.5601 20.8348C68.6001 21.3048 67.5301 21.5448 66.3601 21.5448H55.9001V2.88477L55.8901 2.89477ZM64.1101 9.96476C64.6601 9.96476 65.0701 9.85477 65.3201 9.63477C65.5801 9.41477 65.7101 9.04477 65.7101 8.52477C65.7101 8.04477 65.5801 7.69477 65.3201 7.48477C65.0601 7.27477 64.6601 7.16477 64.1101 7.16477H62.0301V9.96476H64.1101ZM64.4601 17.2748C65.1001 17.2748 65.5601 17.1548 65.8501 16.9048C66.1301 16.6548 66.2801 16.2548 66.2801 15.7048C66.2801 15.1548 66.1401 14.7448 65.8501 14.4948C65.5601 14.2348 65.1001 14.1048 64.4601 14.1048H62.0301V17.2848H64.4601V17.2748Z" fill="black"/>
<path d="M74.04 2.89453H80.37V16.2445H87.34V21.5545H74.05V2.89453H74.04Z" fill="black"/>
<path d="M88.52 2.89453H102.35V8.20453H94.85V9.83453H100.16V14.6145H94.85V16.2445H102.35V21.5545H88.52V2.89453Z" fill="black"/>
<path d="M115.53 8.20453H110.75V2.89453H126.63V8.20453H121.85V21.5545H115.52V8.20453H115.53Z" fill="black"/>
<path d="M128.06 2.89453H141.89V8.20453H134.39V9.83453H139.7V14.6145H134.39V16.2445H141.89V21.5545H128.06V2.89453Z" fill="black"/>
<path d="M150.16 2.89453H156.14L163.61 21.5545H157.12L155.92 18.2945H150.37L149.17 21.5545H142.68L150.15 2.89453H150.16ZM154.54 13.6445L153.15 9.34453L151.76 13.6445H154.54Z" fill="black"/>
<path d="M172.46 2.89453H186.29V8.20453H178.79V9.83453H184.1V14.6145H178.79V21.5545H172.46V2.89453Z" fill="black"/>
<path d="M187.79 2.89453H201.62V8.20453H194.12V9.83453H199.43V14.6145H194.12V16.2445H201.62V21.5545H187.79V2.89453Z" fill="black"/>
<path d="M206.17 21.5753C204.92 21.3253 203.91 20.9854 203.13 20.5654V15.0654C204.13 15.6354 205.18 16.0654 206.29 16.3454C207.4 16.6254 208.43 16.7754 209.37 16.7754C209.9 16.7754 210.29 16.7253 210.52 16.6153C210.75 16.5053 210.87 16.3353 210.87 16.1053C210.87 15.7853 210.69 15.5153 210.34 15.2953C209.98 15.0753 209.23 14.7053 208.07 14.1853C206.36 13.4353 205.12 12.6053 204.35 11.6853C203.58 10.7653 203.19 9.65535 203.19 8.33535C203.19 7.19535 203.51 6.18535 204.14 5.30535C204.77 4.42535 205.66 3.73535 206.81 3.23535C207.96 2.73535 209.27 2.48535 210.75 2.48535C211.96 2.48535 213.04 2.58535 213.98 2.77535C214.92 2.97535 215.82 3.27535 216.68 3.68535V8.99535C215.08 8.10535 213.49 7.66535 211.93 7.66535C210.67 7.66535 210.03 7.94535 210.03 8.49535C210.03 8.76535 210.18 8.98535 210.47 9.16535C210.76 9.34535 211.29 9.58535 212.06 9.88535L213.05 10.2853C214.31 10.8153 215.28 11.3454 215.96 11.8754C216.64 12.4054 217.12 12.9954 217.4 13.6654C217.68 14.3354 217.83 15.1753 217.83 16.1853C217.83 17.9853 217.17 19.3954 215.85 20.4154C214.53 21.4354 212.55 21.9454 209.9 21.9454C208.67 21.9454 207.44 21.8253 206.19 21.5753H206.17Z" fill="black"/>
<path d="M222.32 8.20453H217.54V2.89453H233.42V8.20453H228.64V21.5545H222.31V8.20453H222.32Z" fill="black"/>
<path d="M243.52 2.89453H250.14L253.98 13.3545L257.82 2.89453H264.44L256.97 21.5545H250.99L243.52 2.89453Z" fill="black"/>
<path d="M268.85 2.89453H274.83L282.3 21.5545H275.81L274.61 18.2945H269.06L267.86 21.5545H261.37L268.84 2.89453H268.85ZM273.23 13.6445L271.84 9.34453L270.45 13.6445H273.23Z" fill="black"/>
<path d="M283.64 2.89453H289.97V16.2445H296.94V21.5545H283.65V2.89453H283.64Z" fill="black"/>
<path d="M241.19 2.89453C241.19 4.46453 239.92 5.73453 238.35 5.73453C236.78 5.73453 235.51 4.46453 235.51 2.89453H234.36V21.5545H242.34V2.89453H241.19ZM238.35 12.5845C236.78 12.5845 235.51 11.3145 235.51 9.74453C235.51 8.17453 236.78 6.90453 238.35 6.90453C239.92 6.90453 241.19 8.17453 241.19 9.74453C241.19 11.3145 239.92 12.5845 238.35 12.5845Z" fill="black"/>
<path d="M238.35 0.0449219C236.78 0.0449219 235.51 1.31492 235.51 2.88492H241.2C241.2 1.31492 239.93 0.0449219 238.36 0.0449219H238.35Z" fill="black"/>
</svg>
