<svg fill="none" height="74" viewBox="0 0 38 74" width="38" xmlns="http://www.w3.org/2000/svg" xmlns:xlink="http://www.w3.org/1999/xlink"><clipPath id="a"><path d="m.917969.164062h36.324v73.4015h-36.324z"/></clipPath><g clip-path="url(#a)" clip-rule="evenodd" fill-rule="evenodd"><path d="m35.6904 23.3679c0-7.7346-7.513-14.00657-16.7768-14.00657-9.26387 0-16.77688 6.27197-16.77688 14.00657z" fill="#f9cbac"/><path d="m19.9766 1.36083v24.55577c0 .6649-.4876 1.219-1.086 1.219-.5983 0-1.0859-.5319-1.0859-1.219v-24.55577c0-.664873.4876-1.196767 1.0859-1.196767.6206 0 1.086.531894 1.086 1.196767z" fill="#ed8745"/><path d="m19.5354 73.5662c7.2027 0 13.0536-1.2854 13.0536-2.8811l3.3908-47.3164h-33.81964l4.29948 47.3164c0 1.5957 5.85086 2.8811 13.07576 2.8811z" fill="#f1914e"/><path d="m2.04825 23.3677h34.06345c.6205 0 1.1303.5097 1.1303 1.1303v.6427c0 .6205-.5098 1.1302-1.1303 1.1302h-34.06345c-.62055 0-1.130281-.5097-1.130281-1.1302v-.6427c0-.6206.509731-1.1303 1.130281-1.1303z" fill="#fad5bc"/><path d="m7.87784 64.0801c-.3546-2.4378-.59838-6.3605-.97514-10.0395-.37676-3.6789-.88649-7.1141-.93082-8.9535-.04432-1.8395.37676-2.0611 1.57353-1.7952 1.19676.2438 3.21349.9752 5.36329 1.086 2.1497.1108 4.4324-.3768 6.5157-.6871 2.1054-.3102 4.0114-.421 5.5627-.0664 1.5514.3546 2.7482 1.1524 3.9892 1.3519 1.2633.1773 2.5709-.266 3.1692.2881.5984.554.5098 2.0832.2217 5.8951-.2881 3.7898-.7535 9.8623-.9973 13.4747-.2438 3.6125-.2881 4.7649-.6649 5.4298-.3768.6648-1.1081.8643-3.1249 1.1081-2.0389.2438-5.3854.554-7.9119.5762-2.5265 0-4.2552-.2216-5.8952-.82s-3.1692-1.5514-4.14434-2.5043c-.97514-.9309-1.39622-1.906-1.75082-4.3439z" fill="#f5aa75"/><g fill="#924e37"><path d="m14.7917 65.0777c1.1968 0 2.1941-.9751 2.1941-2.1719s-.9752-2.1719-2.1941-2.1719-2.194.9751-2.194 2.1719c0 1.1746.9973 2.1719 2.194 2.1719z"/><path d="m27.4453 63.8804c1.1968 0 2.1941-.9751 2.1941-2.1719 0-1.1967-.9751-2.1719-2.1941-2.1719-1.1967 0-2.1719.9752-2.1719 2.1719 0 1.1968.9752 2.1719 2.1719 2.1719z"/><path d="m10.7582 60.7554c1.1968 0 2.1941-.9751 2.1941-2.1719 0-1.1967-.9752-2.1719-2.1941-2.1719-1.19676 0-2.1719.9752-2.1719 2.1719-.02216 1.1968.97514 2.1719 2.1719 2.1719z"/><path d="m10.78 71.1944c1.1968 0 2.1941-.9751 2.1941-2.1719s-.9752-2.1719-2.1941-2.1719c-1.19676 0-2.19406.9751-2.19406 2.1719 0 1.1746.97514 2.1719 2.19406 2.1719z"/><path d="m17.03 71.6597c1.1968 0 2.1941-.9751 2.1941-2.1719 0-1.1967-.9752-2.1719-2.1941-2.1719-1.1968 0-2.1941.9752-2.1941 2.1719 0 1.1968.9752 2.1719 2.1941 2.1719z"/><path d="m21.3288 66.939c1.1968 0 2.1941-.9751 2.1941-2.1719 0-1.1967-.9751-2.1719-2.1941-2.1719-1.1967 0-2.194.9752-2.194 2.1719 0 1.1746.9751 2.1719 2.194 2.1719z"/><path d="m24.8086 70.9058c1.1968 0 2.1941-.9751 2.1941-2.1719s-.9752-2.1719-2.1941-2.1719c-1.1967 0-2.1719.9751-2.1719 2.1719s.9752 2.1719 2.1719 2.1719z"/></g></g></svg>