<svg fill="none" height="66" viewBox="0 0 188 66" width="188" xmlns="http://www.w3.org/2000/svg"><path d="m116.488 49.103c1.13-.2834 2.165.3779 2.447 1.5118.282 1.1338.847 2.4565 2.07 2.6455 1.129.189 2.446-.6614 3.105-1.7952.847-1.5117.471-3.3069-.941-5.0076-2.258-2.7401-4.893-3.6849-7.621-2.929-3.106.9448-5.646 4.1573-6.211 7.6532.659 1.7007 3.576 8.8814 10.727 12.3773 8.186 4.0628 23.806 3.4014 35.944-4.6297 14.585-9.7318 25.876-13.3222 31.992-14.645-2.917-1.7952-7.245-3.5903-11.385-2.551-.753.1889-1.506.3779-2.165.5669-7.903 1.9841-15.901 4.0628-27.099-11.0546-3.387-4.5352-7.057-7.0863-10.915-7.4642-4.798-.4725-8.374 2.551-8.844 2.929-4.235 4.9131-8.469 6.3304-12.044 6.3304-5.082 0-8.751-3.0235-8.845-3.0235-.847-.7559-.941-1.9842-.283-2.8345.753-.8504 1.976-.9449 2.823-.2835.753.6614 7.34 5.6691 14.773-2.3621-.188-2.74-1.411-11.9994-8.939-14.456-11.95-3.9683-17.5014 3.6849-17.6896 3.9683-.4705.6614-1.2232.9449-1.976.8504-.7527-.0945-1.4114-.6614-1.5996-1.3228-.2823-.7559-6.7748-18.42432-26.4404-12.28287-15.0551 4.72419-13.7378 19.18017-13.3614 21.73127.941 1.3228 4.7047 6.6139 9.7858 7.4642 2.5405.4724 5.0811-.2834 7.6216-2.1731 4.4224-3.4014 4.3283-7.1808 3.011-9.3539-1.5055-2.3621-5.0811-3.7794-9.5035-1.4173-1.035.4725-2.2582.0945-2.7287-.8503-.4705-1.0393-.0941-2.2676.8468-2.74 6.7748-3.4959 12.4205-.9449 14.8669 2.9289 2.4465 3.9684 2.2583 10.0153-3.9519 14.834-2.7288 2.1731-5.6457 3.2125-8.5626 3.2125-.7528 0-1.5055-.0945-2.2583-.189-6.2102-1.1338-10.6326-6.7084-12.1381-8.8815-1.7878-.189-6.3984-.2834-11.1031 3.2125-2.6346 1.9841-4.3283 4.0628-5.9279 6.0469-4.0461 5.0077-7.4335 9.4484-22.4885 7.4642-3.95197-.5669-8.09211-.1889-11.4795.4725 2.44645 1.1338 5.45746 2.74 9.40941 4.8186 1.12909.5669 2.35239 1.2283 3.66969 1.9842 11.3854 6.0469 19.2893 2.4566 19.6656 2.2676.4705-.2835 1.1292-.2835 1.5996 0 .5646.189.941.6614 1.1292 1.1338.0941.189 2.6346 6.1414 13.5495 7.6532 7.7157 1.0393 11.7618-.8504 13.6437-2.2676-5.2693-5.0077-4.7047-12.7553-4.7047-13.1333.0941-1.1338 1.1291-1.9841 2.1641-1.8896 1.1292.0944 1.976 1.0393 1.8819 2.1731 0 .0945-.4705 7.4642 4.7988 10.9601.0941 0 .0941.0945.0941.0945l.0941.0945c.0941.0944.1882.1889.2823.3779.1882.3779 5.5515 7.9366 19.4775 6.8973 13.1731-1.0393 17.8782-11.8105 18.4422-13.3222.659-5.1966 4.423-9.8263 9.127-11.2436 4.329-1.3227 8.657.189 11.95 4.1573 2.541 3.0235 3.011 6.6139 1.412 9.6374-1.318 2.4565-3.858 3.9683-6.399 3.9683-.282 0-.564 0-.847-.0945-2.728-.3779-4.704-2.4566-5.551-5.7635-.188-1.0393.47-2.1731 1.599-2.4566z" fill="#b0dbe6"/></svg>