<svg fill="none" viewBox="0 0 37 38" xmlns="http://www.w3.org/2000/svg"><path d="m36.5995 18.8997c-.0747-2.0604-.8828-4.0264-2.2787-5.5437-1.396-1.5173-3.288-2.4861-5.3351-2.7318.2727-2.04556-.1966-4.12107-1.323-5.85017s-2.8352-2.99726-4.8164-3.5745c-1.9812-.577232-4.1037-.425307-5.9825.42822-1.8789.85353-3.3896 2.35214-4.2582 4.22403-1.8623-.89929-3.98566-1.09984-5.98338-.5651-1.99772.53473-3.73693 1.76916-4.90095 3.4785-1.164032 1.70932-1.6754814 3.77992-1.441131 5.83462.23435 2.0547 1.198891 3.957 2.717941 5.3603-1.43185 1.4935-2.279406 3.4517-2.388189 5.5179-.108783 2.0661.528489 4.1025 1.795589 5.7381 1.26709 1.6356 3.07967 2.7615 5.10743 3.1724s4.13569.0796 5.93959-.9336c.9774 1.8235 2.5774 3.2352 4.5086 3.9777s4.0649.7664 6.0122.0673 3.5785-2.0746 4.5965-3.8758 1.3549-3.9083.9492-5.9371c2.038-.372 3.8743-1.4641 5.174-3.0772 1.2998-1.6131 1.9764-3.6397 1.9065-5.7101zm-14.7825-3.0575.9702-1.4588c.0576-.0982.1347-.1836.2265-.251.0919-.0673.1964-.1152.3074-.1407s.2261-.028.3381-.0075c.112.0206.2186.0638.3133.127.0947.0633.1754.1452.2373.2407.062.0956.1037.2028.1227.3151s.0148.2272-.0122.3378-.0763.2146-.1449.3055c-.0954.1513-.2409.2643-.4111.3193l-1.6826.5774c-.0315.0113-.065.0162-.0985.0145s-.0663-.01-.0966-.0245c-.0303-.0144-.0575-.0347-.0799-.0597-.0224-.0249-.0396-.0541-.0507-.0858-.0077-.0372-.0062-.0757.0045-.1122.0106-.0365.03-.0699.0565-.0971zm-7.3726-4.1394c.1759-.1354.398-.196.6182-.1687.2203.0273.4209.1404.5583.3146.1112.142.1721.3169.1731.4972l.0419 1.7537c.0011.0326-.0043.0651-.0159.0957-.0115.0305-.029.0584-.0514.0822-.0224.0237-.0493.0428-.0791.0561s-.062.0205-.0946.0213c-.0383 0-.0761-.0085-.1106-.0251-.0344-.0166-.0647-.0408-.0886-.0708l-1.1112-1.3837c-.1256-.1771-.1787-.3956-.1484-.6106.0302-.215.1416-.4103.3112-.5459zm-4.1866 8.7824c-.1045.0452-.2172.0686-.33111.0688-.11388.0001-.22654-.023-.33117-.0679-.10462-.045-.199-.1109-.27726-.1936s-.1388-.1806-.17789-.2875c-.03909-.107-.05589-.2208-.04942-.3345s.03608-.2249.08705-.3267.1222-.1922.20934-.2655.18838-.128.29743-.1608c.1688-.0643.35443-.069.52623-.0133l1.682.4901c.063.0183.116.0609.1475.1184.0316.0574.039.1251.0207.188-.011.0371-.0299.0715-.0554.1006-.0255.0292-.057.0525-.0923.0684zm5.1775 7.0736c-.2211.0074-.436-.073-.5979-.2238-.1619-.1507-.2574-.3595-.2656-.5805-.0112-.1819.0413-.3621.1484-.5095l.9961-1.4437c.0384-.0548.0969-.0923.1627-.1043.0659-.012.1338.0025.1891.0402.0306.0229.0557.0525.0734.0865.0176.034.0273.0715.0284.1098l.0718 1.7548c.0107.1147-.0022.2303-.0379.3398s-.0934.2106-.1696.2969-.1694.1561-.2736.2051c-.1043.0489-.2174.076-.3326.0796zm8.094-3.0404c-.1732-.0488-.3263-.1518-.4368-.2938l-1.0632-1.3925c-.0317-.0423-.0495-.0933-.0509-.1461s.0136-.1047.043-.1485c.0294-.0439.0718-.0775.1212-.0962s.1033-.0216.1544-.0083l1.682.4901c.2128.062.3924.2061.499.4004.1067.1944.1318.4232.0697.636-.062.2129-.206.3924-.4004.4991-.1943.1067-.4232.1317-.636.0697zm3.0785-5.1604c-.0246.036-.0544.0682-.0885.0954-.4069.2486-.8395.4526-1.2902.6084-.9218.3195-1.8824.5133-2.8559.5763-.5032.0403-1.009.0374-1.5117-.0089-.4578-.0496-.9098-.1433-1.3496-.2796l-.349-.1017c-.0864.1975-.2081.3775-.3591.5314l.2381.2738c.2911.3543.5448.7378.757 1.1443.2313.4582.4242.9348.5767 1.4249.2982.9309.4698 1.8978.5103 2.8744.0191.4725-.0121.9457-.0932 1.4115-.0065.0365-.0203.0714-.0405.1025-.0202.031-.0465.0577-.0773.0784-.0308.0208-.0653.0351-.1017.0421-.0364.0071-.074.0067-.1103-.0011-.0443-.0013-.0874-.0139-.1255-.0365-.3614-.3087-.6866-.6575-.9692-1.0396-.5919-.7782-1.0765-1.6324-1.4407-2.5398-.1902-.4763-.3435-.9664-.4586-1.4662-.0929-.451-.1443-.9095-.1537-1.3698.0326-.1117.0092-.2396.0188-.3504-.2162-.0227-.4265-.084-.6211-.181-.0538.1055-.1161.2063-.1863.3016-.2471.3879-.5349.7482-.8584 1.075-.3575.3656-.7501.695-1.1724.9834-.7902.5763-1.6566 1.0399-2.5744 1.3776-.4443.1684-.9057.2878-1.3759.3563-.0364.0042-.0733.001-.1086-.0093-.0352-.0102-.0681-.0274-.0966-.0506-.0285-.0231-.0521-.0516-.0694-.084-.0174-.0323-.0281-.0678-.0316-.1043-.0026-.0449.0104-.0892.0366-.1257.1778-.4384.4059-.8547.6795-1.2406.5561-.8042 1.2205-1.5279 1.9743-2.1506.3902-.3336.8091-.6322 1.2518-.8921.3961-.2314.8163-.4187 1.2531-.5587.1142-.0402.2303-.0746.348-.103-.0472-.2112-.0556-.4291-.0246-.6432l-.342-.0997c-.4444-.1209-.8759-.2847-1.2886-.489-.4489-.231-.8771-.5001-1.2799-.8045-.7875-.5791-1.4956-1.2588-2.1064-2.022-.2932-.3737-.5461-.7773-.75457-1.2041-.01772-.032-.02897-.0671-.03303-.1033-.00407-.0363-.00092-.073.00929-.1081.01021-.035.02728-.0677.05021-.0961.0229-.0284.0512-.052.0833-.0694.0417-.0162.0854-.0264.1299-.0303.4863.0413.9666.1355 1.4325.281.9438.279 1.8439.6891 2.6737 1.2182.4436.2657.8612.5724 1.2474.9162.3435.3097.6542.654.9273 1.0273l.2022.2936c.1869-.1057.3901-.1796.6013-.2185-.0134-.1099-.0248-.2268-.0321-.3577-.026-.4589-.0035-.9193.0671-1.3736.0746-.505.1965-1.0018.3641-1.4839.3047-.9398.7382-1.8327 1.288-2.6534.2623-.3955.5669-.7612.9084-1.0907.0551-.0496.1275-.0756.2016-.0724s.1439.0353.1947.0894c.0281.0332.0477.0727.0573.1151.111.4614.1715.9335.1804 1.4079.0193.9875-.0946 1.973-.3388 2.93-.1175.4967-.2815.9813-.4898 1.4473-.1814.4226-.41.8233-.6812 1.1947-.0765.1065-.1489.1989-.2192.2844.1572.1463.289.3178.3898.5073l.3283-.139c.4308-.1682.8778-.2917 1.3339-.3686.5107-.0803 1.0275-.1147 1.5443-.1027.9839.0037 1.9627.1412 2.9096.4085.457.1253.8982.3022 1.3153.5271.0286.048.0423.1033.0395.1591-.0027.0557-.0219.1094-.0551.1544z" fill="#f2ada4"/></svg>