<svg fill="none" height="53" viewBox="0 0 53 53" width="53" xmlns="http://www.w3.org/2000/svg"><g fill="#dc4b38"><path d="m26.3373 26.0999c.3698-1.3692 1.0056-2.6521 1.8713-3.7755.8656-1.1234 1.944-2.0653 3.1737-2.7719 1.2296-.7066 2.5864-1.1642 3.9929-1.3464 1.4064-.1823 2.8351-.0857 4.2042.2841.6583-2.7396.2207-5.6279-1.2196-8.0495-1.4404-2.42161-3.7695-4.1849-6.4911-4.91414-2.7215-.72924-5.6203-.36676-8.0784 1.01022-2.4582 1.37698-4.2814 3.65952-5.0811 6.36132 2.7585.7451 5.1096 2.5523 6.5391 5.0263s1.8211 5.4135 1.089 8.1755z"/><path d="m26.3365 26.0992c-1.3713-.3665-2.657-.9996-3.7834-1.8634-1.1264-.8637-2.0715-1.941-2.7813-3.1703-.7097-1.2293-1.1701-2.5864-1.3549-3.9938-.1848-1.4073-.0904-2.8373.2779-4.2082-2.7395-.6583-5.6279-.2206-8.0495 1.2197-2.42155 1.4403-4.1848 3.7695-4.91403 6.4911-.72924 2.7215-.36681 5.6203 1.01017 8.0784 1.37699 2.4582 3.65956 4.2814 6.36126 5.081.3672-1.3704 1.0009-2.6551 1.8649-3.7806.8639-1.1255 1.9411-2.0697 3.17-2.7787 1.229-.709 2.5857-1.1689 3.9925-1.3534s2.8361-.09 4.2064.2782z"/><path d="m26.3371 26.0998c-.7433 2.7667-2.5549 5.1251-5.0365 6.5567-2.4815 1.4316-5.43 1.8193-8.1973 1.0778-.6583 2.7396-.2206 5.6279 1.2197 8.0495 1.4404 2.4216 3.7695 4.1849 6.4911 4.9142 2.7215.7292 5.6203.3667 8.0784-1.0103 2.4582-1.377 4.2814-3.6595 5.081-6.3612-2.7666-.7413-5.1254-2.5513-6.5575-5.0318s-1.8202-5.4283-1.0789-8.1949z"/><path d="m39.5796 18.4902c-.7486 2.7641-2.5636 5.118-5.0465 6.5448s-5.4306 1.8098-8.1956 1.0649c1.3748.3654 2.6638.9988 3.7931 1.8638s2.0766 1.9446 2.7874 3.1768c.7109 1.2322 1.1712 2.5926 1.3547 4.0033.1836 1.4106.0867 2.8436-.2852 4.2166 2.7396.6583 5.6279.2207 8.0495-1.2197 2.4216-1.4403 4.1849-3.7694 4.9141-6.491.7293-2.7216.3667-5.6203-1.0102-8.0784-1.377-2.4582-3.6596-4.2814-6.3613-5.0811z"/></g><path d="m28.7184 15.8366.0309-3.5224c.0027-.3385.1397-.662.3809-.8994s.5667-.3694.9052-.3667c.3384.0026.662.1396.8994.3808.2375.2412.3693.5668.3667.9052-.0053.2168-.0622.4291-.166.6194l-1.7344 3.066c-.0486.0827-.1279.1429-.2206.1675-.0928.0246-.1915.0116-.2747-.0362-.0584-.0285-.1071-.0735-.1404-.1293-.0332-.0558-.0496-.12-.047-.1849z" fill="#fff"/><path d="m16.0354 23.7242-3.5173-.0221c-.3384-.0027-.662-.1396-.8994-.3808s-.3694-.5668-.3667-.9053c.0026-.3384.1396-.6619.3808-.8993.2412-.2375.5668-.3694.9052-.3667.2168.0052.4291.0621.6195.1659l3.0589 1.7325c.0418.0235.0786.0551.1081.0928.0296.0377.0515.081.0643.1271.0129.0462.0164.0945.0106.1421-.0059.0476-.021.0936-.0446.1353-.0322.0558-.0789.1019-.1351.1333-.0563.0314-.12.047-.1843.0452z" fill="#fff"/><path d="m23.936 36.4104-.0291 3.5153c-.0037.3391-.1415.663-.3834.9008-.2418.2377-.568.37-.9072.3679-.3381-.0036-.661-.1414-.8976-.3831-.2366-.2416-.3676-.5674-.364-.9056-.0021-.2177.0553-.4319.166-.6194l1.7325-3.0589c.0489-.083.128-.1437.2207-.1696.0928-.0258.1919-.0146.2766.0312.0559.0332.1023.0802.1347.1364.0325.0563.05.12.0508.185z" fill="#fff"/><path d="m36.6125 28.5135 3.5154.0292c.3384.0026.6619.1396.8994.3807.2374.2412.3694.5668.3667.9053-.0026.3384-.1397.6619-.3809.8994-.2411.2374-.5667.3693-.9051.3667-.2168-.0053-.4291-.0622-.6195-.166l-3.057-1.7395c-.0424-.0217-.0799-.0521-.1099-.089-.03-.037-.052-.0798-.0646-.1258-.0125-.0459-.0153-.094-.0082-.1412.0071-.0471.024-.0922.0495-.1324.0306-.0567.0759-.104.1313-.137.0553-.033.1185-.0504.1829-.0504z" fill="#fff"/></svg>