<svg fill="none" viewBox="0 0 54 55" xmlns="http://www.w3.org/2000/svg"><path d="m53.6998 30.341c.3886-2.982-.3042-6.0046-1.9529-8.5196-1.6486-2.5151-4.1439-4.3561-7.0335-5.1893.8727-2.8798.6838-5.977-.5323-8.7294-1.216-2.75241-3.3787-4.97757-6.0954-6.27152-2.7166-1.293962-5.8072-1.570945-8.7107-.780675-2.9035.790275-5.4273 2.595405-7.1134 5.087725-2.4691-1.7157-5.4712-2.49003-8.4621-2.18262-2.9909.3074-5.77273 1.67621-7.84121 3.85828s-3.28673 5.03301-3.43395 8.03611c-.14723 3.003.78632 5.9595 2.63145 8.3334-2.38316 1.819-4.03759 4.43-4.664747 7.3617-.627153 2.9317-.185695 5.9911 1.244697 8.6259 1.43039 2.6348 3.75549 4.6715 6.55568 5.7426 2.80018 1.0711 5.89098 1.106 8.71468.0983.9818 2.8469 2.9532 5.2467 5.5554 6.7625 2.6021 1.5158 5.662 2.047 8.6228 1.4968 2.9607-.5502 5.6256-2.1451 7.5094-4.4945 1.8839-2.3495 2.8616-5.2972 2.7552-8.3068 3.0122-.0535 5.9051-1.1859 8.1532-3.1914s3.702-4.7509 4.0977-7.7375zm-20.5404-7.8268 1.7363-1.8704c.2252-.2128.523-.332.8328-.3335.3099-.0015.6088.1148.8361.3255.2273.2106.366.4998.388.8089.0221.3091-.0742.615-.2693.8557-.1782.192-.4145.3199-.6726.3641l-2.5179.4514c-.0967.0168-.196-.0055-.2763-.0618-.0804-.0564-.135-.1423-.1521-.2389-.0084-.0541-.0042-.1094.0123-.1616s.0448-.0999.0827-.1394zm-9.6348-7.6649c.2839-.1528.6165-.1879.926-.0977s.5712.2985.7286.5798c.1315.2271.1813.4923.1412.7517l-.3516 2.5299c-.0109.0746-.0448.144-.0969.1985s-.1198.0914-.1939.1057c-.074.0143-.1506.0052-.2192-.026-.0687-.0313-.1259-.083-.1638-.1482l-1.2584-2.2098c-.079-.1424-.1291-.2992-.1473-.4611-.0183-.1619-.0043-.3258.041-.4823.0454-.1565.1212-.3025.2232-.4296s.2282-.2327.3711-.3109zm-8.0751 11.6456c-.1889.0393-.3845.033-.5705-.0185-.186-.0514-.357-.1464-.4989-.2771-.142-.1307-.2507-.2934-.3172-.4746-.0665-.1811-.0889-.3755-.0653-.567.0237-.1915.0926-.3747.2012-.5342.1085-.1596.2535-.2909.423-.3832.1694-.0923.3584-.1429.5514-.1476.1929-.0047.3841.0367.5578.1208l2.3036 1.0972c.0871.0414.1541.1157.1863.2066.0322.0908.027.1908-.0144.2778-.0271.0502-.064.0944-.1086.1299s-.0959.0616-.1508.0767zm5.7943 11.3834c-.3185-.0419-.6077-.2076-.8049-.4613s-.2865-.5749-.2485-.8939c.0247-.2638.1421-.5103.3314-.6957l1.7659-1.8482c.0688-.0677.1613-.106.2578-.1066.0966-.0007.1895.0364.2592.1032.0415.0381.0734.0854.093.1382.0197.0527.0266.1094.0201.1653l-.309 2.5421c-.0446.3195-.2123.6088-.4674.8063-.255.1975-.5771.2874-.8976.2506zm12.3476-2.4767c-.2351-.1123-.4295-.2949-.5563-.5226l-1.2071-2.2497c-.0442-.0866-.0533-.187-.0254-.2802s.0906-.172.1752-.2201c.0517-.0258.1085-.0399.1663-.0416.0577-.0017.1152.0092.1684.0319l2.3036 1.0972c.1571.0604.3.1527.4197.271s.2137.2601.2761.4164c.0623.1563.0917.3239.0862.4921s-.0457.3335-.118.4854c-.0724.152-.1754.2874-.3026.3976-.1271.1103-.2757.193-.4364.2432-.1607.0501-.33.0664-.4973.048s-.329-.0712-.4749-.1551zm5.6231-6.7343c-.0388.0481-.0897.085-.1475.1069-.6396.2645-1.3066.4572-1.9887.5746-1.4024.2489-2.8323.3047-4.2499.1659-.753-.0642-1.4988-.1958-2.2283-.3931-.6496-.1748-1.2795-.4155-1.8802-.7184l-.4725-.225c-.174.2607-.3918.4893-.6439.6756l.2816.4401c.3304.583.6045 1.1962.8186 1.8312.2262.7133.3925 1.4443.4971 2.1853.208 1.405.2298 2.8313.0649 4.242-.0803.6872-.2375 1.3631-.4687 2.0152-.0176.0511-.0454.098-.0817.138s-.0804.0723-.1295.0948-.1022.0348-.1562.0362-.1077-.0081-.158-.0281c-.0603-.012-.1167-.0389-.164-.0781-.4501-.5284-.8396-1.1055-1.1612-1.7206-.6725-1.2551-1.1687-2.5969-1.4745-3.9875-.164-.7276-.2695-1.4671-.3155-2.2115-.0319-.6677.001-1.337.0983-1.9984.0388-.1828.0713-.3525.1073-.5125-.15-.043-.2966-.0967-.4388-.1607-.1437-.0722-.2822-.1543-.4144-.2457-.1035.1416-.216.2762-.337.4032-.4362.4995-.9221.9533-1.4503 1.3544-.6016.4379-1.2419.8202-1.9128 1.1421-1.2719.6394-2.6249 1.1028-4.0218 1.3776-.6806.1358-1.3739.1971-2.0678.1826-.1073-.0056-.208-.0535-.2802-.1331s-.11-.1846-.1051-.2919c.0117-.0656.0409-.1268.0844-.1772.3614-.5907.7895-1.1378 1.2759-1.6307.9834-1.0242 2.1033-1.9078 3.3282-2.626.6412-.3857 1.3136-.7172 2.01-.9911.6255-.2415 1.2751-.4153 1.9377-.5184l.5192-.0587c-.0157-.315.0279-.6302.1285-.9291l-.4947-.1954c-.6114-.2747-1.1931-.6111-1.7361-1.004-.6127-.4425-1.1847-.9386-1.7094-1.4825-.9986-1.0154-1.8561-2.1604-2.5494-3.4044-.3358-.605-.6063-1.244-.8071-1.9062-.0141-.051-.0179-.1043-.0113-.1568.0066-.0524.0236-.1031.05-.1489.0263-.0459.0615-.0861.1035-.1183.0419-.0321.0899-.0557.141-.0692.0615-.0219.1277-.0266.1916-.0134.6749.1684 1.3293.4099 1.9517.7202 1.2826.6152 2.4713 1.4091 3.5309 2.3581.5665.4854 1.0873 1.0218 1.5556 1.6026.4231.5191.7893 1.0823 1.0922 1.6796l.2268.4704c.2849-.1135.5874-.1765.8939-.1862.0034-.1594.0163-.3385.0388-.521.0671-.6667.2049-1.3244.4112-1.962.2329-.7086.5254-1.3962.8743-2.0555.6552-1.2608 1.4809-2.4255 2.4537-3.4611.471-.5088.9941-.9667 1.5606-1.3663.0454-.0296.0963-.0499.1496-.0596s.108-.0087.161.003c.0529.0117.1029.0339.1472.0652.0442.0313.0818.0711.1104.1171.0348.0521.056.1121.0619.1744.0508.6917.0248 1.3868-.0774 2.0727-.1876 1.4088-.5717 2.7843-1.1411 4.0863-.2866.6888-.6341 1.3505-1.0385 1.9774-.3657.5605-.7871 1.0828-1.2577 1.5588l-.3867.3553c.184.2451.3255.5194.4187.8114.1585-.0453.3301-.0844.5017-.1234.6567-.142 1.3271-.2116 1.999-.2074.746-.0012 1.4905.065 2.2246.1981 1.403.2311 2.7677.6536 4.0559 1.2555.6316.2864 1.2286.6437 1.7795 1.0649.0893.0548.154.1418.1808.243.0267.1012.0135.2089-.0371.3006z" fill="#ed7474"/></svg>