<svg fill="none" height="37" viewBox="0 0 38 37" width="38" xmlns="http://www.w3.org/2000/svg"><path d="m31.972 4.13386c-1.5184-1.36507-3.4756-2.14086-5.5169-2.18669s-4.0314.64133-5.6096 1.93688c-1.2749-1.59644-3.0799-2.68283-5.0875-3.061969-2.0075-.379136-4.0845-.025888-5.85381.995629-1.76933 1.02152-3.11374 2.6436-3.78918 4.57176-.67543 1.92816-.63712 4.03463.10798 5.93693-1.90993.7207-3.49846 2.1019-4.47763 3.8931-.979177 1.7912-1.284196 3.874-.859786 5.8708.424406 1.9968 1.550166 3.7754 3.173216 5.0136 1.62306 1.2381 3.636 1.8538 5.67396 1.7354.10023 2.0331.92385 3.9634 2.32235 5.4425 1.3984 1.4791 3.2795 2.4097 5.3038 2.6237s4.0583-.3027 5.7351-1.4567c1.6769-1.154 2.8859-2.8694 3.4091-4.8366 1.9702.5465 4.0712.3674 5.9205-.5046 1.8494-.8721 3.3242-2.3792 4.1559-4.247.8318-1.8678.9653-3.9721.3763-5.9301-.5891-1.9579-1.8616-3.6393-3.5859-4.7381 1.1294-1.7054 1.6094-3.7594 1.3529-5.78865-.2565-2.02928-1.2326-3.89918-2.7508-5.26989zm-12.2832 8.47664-.3779-1.6911c-.0324-.2078.0155-.4203.1339-.5942.1185-.1739.2986-.2963.5039-.34232.2053-.04606.4204-.01236.6018.09432.1813.1066.3154.2782.375.48.0387.1735.0193.3549-.0553.5163l-.7166 1.5821c-.0278.0605-.0785.1075-.1409.1307-.0624.0233-.1315.0208-.1921-.0068-.0335-.0162-.0628-.0398-.0857-.0691-.0228-.0293-.0386-.0635-.0461-.0999zm-7.9954 2.439c.0238-.2176.1322-.4171.3017-.5555.1696-.1384.3868-.2046.6047-.1843.1777.0138.3452.088.4748.2103l1.2798 1.1703c.0375.0348.0633.0804.0737.1306.0104.0501.005.1022-.0155.1491s-.0551.0863-.099.1126c-.0438.0264-.0948.0385-.1458.0346l-1.7203-.1466c-.1102-.0106-.2171-.0429-.3147-.095-.0976-.0522-.1839-.1231-.254-.2087s-.1225-.1842-.1543-.2901c-.0319-.106-.0424-.2172-.0311-.3273zm3.4059 8.9988c-.0507.1208-.1296.2277-.2299.312-.1003.0842-.2193.1433-.3471.1724-.1277.0291-.2605.0273-.3875-.0052-.1269-.0326-.2442-.0949-.3423-.1818-.098-.0869-.1739-.196-.2213-.3181-.0475-.1221-.0652-.2538-.0516-.3841s.0581-.2555.1297-.3652.1684-.2007.2822-.2655l1.5003-.8662c.0567-.0328.1241-.0416.1873-.0247s.1171.0583.1498.115c.0177.0344.0282.0721.0309.1107s-.0025.0773-.0152.1139zm8.5972 1.1402c-.146.162-.3501.26-.5679.2727-.2177.0126-.4317-.0611-.5956-.2051-.138-.1153-.2307-.2759-.2616-.4531l-.354-1.6991c-.0115-.0645.0027-.131.0395-.1852s.0933-.092.1575-.1052c.0373-.0086.076-.0082.1131.0011s.0714.0273.1002.0524l1.303 1.1513c.1615.1478.2588.353.2711.5717.0123.2186-.0614.4334-.2053.5985zm3.3669-7.8596c-.1533.0882-.3302.1266-.5064.11l-1.7229-.1907c-.0655-.0086-.1251-.0422-.1665-.0936-.0414-.0515-.0614-.1169-.0557-.1827.0055-.0389.0194-.0761.0407-.1091.0213-.0329.0495-.0609.0827-.0819l1.5003-.8662c.0943-.0646.2009-.109.3131-.1304.1123-.0215.2277-.0195.3392.0058.1114.0253.2164.0733.3084.1412.092.0678.169.1538.2261.2528s.0932.2087.1059.3222c.0128.1136.0019.2286-.0319.3377-.0339.1092-.0899.2102-.1646.2967s-.1664.1566-.2695.2059zm-1.6025-5.7371c.0119.0402.013.0829.003.1236-.0982.4596-.2471.9068-.444 1.3335-.4006.8803-.9197 1.7015-1.5429 2.441-.3257.3965-.6863.763-1.0775 1.0951-.3477.296-.7249.5557-1.1254.7751l-.3078.1777c.0789.1977.1229.4075.1301.6202l.3545.0119c.4533.0396.9018.1222 1.3394.2469.486.148.9589.3363 1.4136.563.8659.4244 1.6721.9612 2.3977 1.5963.3534.3094.671.6575.9468 1.0378.0218.0295.0373.0631.0457.0988s.0095.0728.0032.1089-.0199.0706-.0399.1013c-.02.0308-.046.0572-.0765.0776-.0299.0291-.0666.0503-.1068.0617-.4688.0483-.9415.0441-1.4093-.0127-.9608-.1069-1.9023-.3458-2.7978-.71-.4701-.1883-.9244-.4139-1.3584-.6747-.3858-.2391-.7475-.5151-1.0799-.8241-.0874-.092-.1698-.1755-.2455-.2572-.0817.0673-.1682.1286-.2587.1836-.0957.0525-.1949.0984-.2969.1372.0393.1123.0713.2271.0958.3436.1115.4362.1783.8827.1994 1.3325.0134.505-.0192 1.0103-.0974 1.5095-.1319.9575-.3934 1.8927-.7773 2.7797-.186.433-.4186.8443-.6937 1.2269-.0444.0578-.11.0958-.1823.1055s-.1456-.0095-.2038-.0536c-.0321-.0318-.0551-.0717-.0666-.1154-.1913-.4295-.3325-.8795-.421-1.3413-.1944-.9442-.2576-1.9107-.1879-2.8722.0311-.5071.1044-1.0108.2192-1.5057.1057-.4429.2585-.8731.4559-1.2833l.1669-.313c-.1822-.1125-.3417-.2582-.4702-.4295l-.2997.2015c-.3889.2362-.801.4321-1.2297.5846-.4833.1724-.981.3015-1.4872.3856-.9522.1678-1.9227.2067-2.8853.1157-.4677-.045-.9292-.1396-1.3769-.2822-.0339-.0118-.0652-.0301-.092-.054s-.0486-.0529-.0641-.0853-.0245-.0675-.0263-.1034.0035-.0717.0156-.1055c.0114-.0428.0343-.0817.0662-.1124.3539-.3126.7409-.5857 1.154-.8144.8377-.4806 1.7393-.84 2.6779-1.0674.4895-.1301.99-.2149 1.4951-.2533.4532-.0369.9091-.025 1.3598.0355l.3504.0542c.0462-.2031.1274-.3965.2399-.5716-.0878-.0633-.183-.1394-.2765-.2223-.3471-.2941-.6619-.6243-.9392-.9851-.3066-.403-.5787-.8312-.8131-1.2801-.4531-.8518-.7867-1.7618-.9916-2.7046-.1033-.4592-.1581-.928-.1636-1.3987.0009-.0368.0092-.073.0242-.1066.0151-.0336.0368-.0638.0637-.0889s.0586-.0445.0931-.0572.0713-.0184.108-.0167c.0426.0006.0842.0118.1214.0325.4064.2378.7852.5198 1.1295.841.7158.6471 1.3373 1.3913 1.8465 2.211.2749.4253.5113.8744.7063 1.3418.1728.4204.3027.8571.3878 1.3035l.0499.353c.208-.0085.4158.0178.615.0781.0357-.1061.0799-.2171.1241-.3281.1733-.422.3924-.8237.6533-1.1979.2865-.4178.6101-.8087.967-1.1681.6693-.6958 1.4308-1.2965 2.2633-1.7854.4033-.2431.8329-.4395 1.2805-.5855.065-.0288.1386-.0315.2055-.0076.0669.024.122.0729.1539.1364z" fill="#f093b0"/></svg>