<svg fill="none" height="219" viewBox="0 0 397 219" width="397" xmlns="http://www.w3.org/2000/svg"><path d="m376.795.242188s23.636 39.977712 18.807 48.803912-55.897-23.8503-55.897-23.8503z" fill="#f9c778"/><path d="m339.707 25.1953s18.744 50.456 12.431 58.2886c-6.314 7.8327-54.372-31.6541-54.372-31.6541z" fill="#f39898"/><path d="m297.764 51.8301s13.251 53.1419 5.956 60.0739c-7.296 6.931-49.509-34.7217-49.509-34.7217z" fill="#f9c778"/><path d="m254.21 77.1543s11.356 55.8217 2.559 60.7087c-8.798 4.887-45.009-38.7934-45.009-38.7934z" fill="#f39898"/><path d="m130.1 135.771s30.706 41.053 44.419 37.546c11.235-4.176-2.634-55.204-2.634-55.204z" fill="#f39898"/><path d="m171.668 118.136s29.944 43.224 41.197 39.487c10.795-5.107-1.104-58.5546-1.104-58.5546z" fill="#f9c778"/><path d="m87.373 151.57s33.121 46.407 44.379 42.67c10.796-5.106-1.103-58.554-1.103-58.554z" fill="#f9c778"/><path d="m43.0059 166.016s24.2604 44.477 37.9502 41.011c11.2349-4.176 6.9316-55.21 6.9316-55.21" fill="#f39898"/><path d="m.0078125 177.661s28.7774875 44.761 40.0297875 41.012c10.7959-5.106 2.969-52.668 2.969-52.668z" fill="#f9c778"/></svg>